M48
; DRILL file {KiCad 8.0.6} date 2024-11-23T15:25:54+0100
; FORMAT={-:-/ absolute / metric / decimal}
; #@! TF.CreationDate,2024-11-23T15:25:54+01:00
; #@! TF.GenerationSoftware,Kicad,Pcbnew,8.0.6
; #@! TF.FileFunction,Plated,1,2,PTH
FMAT,2
METRIC
; #@! TA.AperFunction,Plated,PTH,ViaDrill
T1C0.300
; #@! TA.AperFunction,Plated,PTH,ComponentDrill
T2C1.000
; #@! TA.AperFunction,Plated,PTH,ComponentDrill
T3C4.100
%
G90
G05
T1
X41.139Y-38.703
X41.139Y-43.503
X42.339Y-97.103
X42.439Y-25.103
X42.539Y-29.703
X42.739Y-56.103
X42.739Y-66.903
X43.339Y-76.903
X43.739Y-80.103
X43.939Y-63.503
X44.339Y-99.103
X44.339Y-114.704
X44.393Y-25.703
X44.519Y-43.923
X44.539Y-27.303
X44.539Y-42.503
X44.539Y-64.303
X44.539Y-81.103
X44.589Y-116.103
X45.589Y-100.603
X49.376Y-35.739
X50.339Y-73.103
X51.339Y-90.103
X51.339Y-95.603
X51.539Y-42.103
X51.539Y-46.503
X51.539Y-61.903
X51.589Y-112.853
X51.599Y-107.103
X51.739Y-78.703
X51.739Y-83.903
X51.839Y-101.103
X51.839Y-117.853
X51.939Y-29.703
X52.739Y-25.303
X53.139Y-44.503
X53.139Y-64.503
X53.139Y-66.503
X53.339Y-97.853
X53.539Y-27.303
X53.589Y-127.103
X53.739Y-80.903
X53.839Y-109.853
X53.839Y-115.103
X54.139Y-92.703
X54.915Y-46.678
X55.739Y-29.603
X56.339Y-67.703
X56.839Y-84.903
X56.839Y-102.353
X56.839Y-119.353
X57.539Y-62.078
X57.739Y-42.603
X57.739Y-93.303
X57.839Y-120.603
X57.864Y-25.028
X57.952Y-78.715
X58.077Y-96.09
X58.124Y-115.113
X59.939Y-50.503
X60.039Y-93.403
X60.339Y-42.903
X60.339Y-80.103
X60.339Y-96.353
X60.539Y-75.703
X60.839Y-117.103
X60.939Y-92.303
X61.089Y-99.104
X61.339Y-55.103
X61.339Y-66.903
X61.539Y-25.703
X61.539Y-45.104
X61.739Y-38.503
X61.839Y-114.103
X62.126Y-83.29
X62.339Y-44.303
X62.339Y-98.353
X62.427Y-60.99
X62.539Y-27.103
X62.539Y-64.103
X62.545Y-81.108
X62.644Y-116.048
X63.695Y-66.703
X63.999Y-73.103
X68.339Y-21.203
X69.539Y-25.303
X69.539Y-29.703
X69.539Y-42.103
X69.539Y-46.703
X69.539Y-62.103
X69.539Y-66.703
X69.539Y-79.103
X69.539Y-83.703
X69.589Y-96.353
X69.589Y-100.603
X69.589Y-117.853
X69.599Y-53.103
X69.599Y-90.103
X69.599Y-123.353
X69.839Y-112.853
X71.139Y-59.353
X71.239Y-44.403
X71.339Y-64.503
X71.339Y-98.603
X71.539Y-27.503
X71.589Y-81.353
X71.745Y-114.258
X71.839Y-109.853
X71.839Y-126.853
X73.089Y-99.603
X73.339Y-118.603
X73.627Y-41.615
X73.739Y-92.703
X73.839Y-95.603
X74.539Y-21.303
X74.839Y-31.303
X74.839Y-47.703
X74.839Y-84.703
X74.839Y-102.353
X74.839Y-119.353
X75.439Y-66.303
X75.566Y-26.903
X75.839Y-115.353
X76.089Y-114.353
X76.227Y-98.215
X76.339Y-33.503
X76.339Y-77.903
X76.339Y-80.603
X77.139Y-54.903
X77.177Y-47.54
X77.539Y-50.503
X78.239Y-66.303
X78.339Y-77.903
X78.539Y-33.703
X78.589Y-84.353
X78.839Y-114.853
X78.864Y-36.903
X78.939Y-92.303
X79.139Y-98.903
X79.339Y-93.703
X79.339Y-110.853
X79.514Y-84.503
X79.539Y-42.703
X79.739Y-46.903
X79.739Y-109.703
X80.089Y-115.103
X80.29Y-81.352
X80.339Y-45.68
X80.539Y-41.103
X80.577Y-97.103
X80.593Y-63.257
X80.724Y-64.103
X80.739Y-24.903
X81.139Y-36.303
X81.339Y-118.353
X81.539Y-46.903
X81.559Y-87.083
X81.739Y-23.903
X81.739Y-79.303
X81.739Y-94.103
X81.839Y-59.403
X81.939Y-42.503
X81.939Y-96.103
X82.739Y-22.903
X83.339Y-90.103
X84.139Y-41.103
X84.939Y-32.903
X85.539Y-40.303
X85.939Y-57.103
X86.339Y-36.303
X86.839Y-123.853
X87.539Y-46.703
X87.539Y-62.103
X87.539Y-77.103
X87.539Y-79.103
X87.539Y-83.703
X87.589Y-112.853
X87.599Y-73.103
X87.739Y-95.503
X88.939Y-64.503
X88.939Y-66.503
X89.089Y-116.603
X89.139Y-98.503
X89.339Y-100.703
X89.539Y-44.703
X89.839Y-115.853
X89.939Y-81.303
X89.952Y-114.715
X90.339Y-27.703
X90.539Y-93.103
X90.589Y-60.703
X90.839Y-126.103
X90.939Y-36.903
X90.939Y-37.903
X90.939Y-38.903
X90.939Y-39.903
X91.339Y-56.603
X91.502Y-66.54
X91.578Y-101.103
X91.578Y-118.103
X91.839Y-127.103
X92.339Y-48.103
X92.339Y-78.503
X92.339Y-84.703
X92.727Y-97.715
X92.839Y-126.603
X96.46Y-58.182
X96.482Y-18.921
X96.569Y-23.873
X96.939Y-41.503
X96.939Y-43.503
X97.139Y-33.903
X97.139Y-49.203
X97.939Y-21.303
X98.139Y-36.303
X98.139Y-38.903
X98.139Y-49.303
X98.139Y-50.303
X98.139Y-51.303
X98.139Y-52.303
X98.439Y-123.303
X99.339Y-54.503
X99.539Y-42.303
X99.939Y-53.903
X100.539Y-53.303
X100.839Y-143.603
X100.939Y-70.503
X100.939Y-71.903
X101.339Y-56.503
X101.339Y-58.103
X101.439Y-65.503
X101.739Y-42.103
X101.839Y-62.703
X102.196Y-57.21
X102.339Y-65.503
X102.339Y-70.503
X102.339Y-71.903
X102.739Y-44.503
X103.239Y-65.503
X103.339Y-57.103
X103.945Y-100.208
X104.039Y-42.303
X104.589Y-128.103
X104.839Y-129.103
X105.139Y-49.103
X105.339Y-64.903
X105.589Y-96.43
X105.601Y-141.393
X105.939Y-44.357
X105.939Y-52.903
X106.089Y-127.853
X106.319Y-113.123
X106.589Y-123.353
X107.089Y-136.353
X107.339Y-44.357
X107.539Y-45.303
X107.539Y-57.703
X107.539Y-90.103
X108.093Y-91.14
X108.339Y-47.503
X109.039Y-51.303
X109.539Y-60.103
X110.089Y-137.103
X110.589Y-96.353
X110.589Y-134.103
X110.599Y-106.353
X111.139Y-42.703
X111.339Y-77.103
X111.339Y-100.853
X111.539Y-49.103
X111.714Y-79.728
X111.939Y-42.703
X112.039Y-84.103
X112.139Y-21.303
X112.139Y-23.703
X112.339Y-81.353
X112.589Y-98.603
X112.739Y-42.703
X113.539Y-55.903
X113.839Y-136.003
X114.139Y-41.703
X114.229Y-38.993
X114.259Y-36.423
X114.315Y-55.186
X114.539Y-34.103
X114.544Y-31.507
X114.589Y-97.328
X114.739Y-26.103
X114.739Y-29.103
X114.739Y-52.103
X114.739Y-53.103
X114.739Y-54.503
X114.839Y-100.878
X114.939Y-21.303
X114.939Y-23.503
X114.939Y-28.103
X114.939Y-89.803
X116.939Y-20.303
X117.275Y-21.448
X117.318Y-22.703
X117.318Y-23.903
X117.318Y-45.049
X117.318Y-52.103
X117.318Y-53.103
X117.447Y-66.353
X117.739Y-27.103
X117.964Y-58.978
X118.139Y-43.003
X118.139Y-44.403
X118.32Y-67.103
X118.339Y-45.703
X118.339Y-134.603
X118.589Y-73.103
X118.873Y-40.449
X119.089Y-22.903
X119.139Y-50.203
X119.589Y-79.686
X119.739Y-120.103
X120.339Y-43.003
X120.339Y-48.203
X120.339Y-101.103
X120.339Y-110.103
X120.589Y-94.853
X120.739Y-23.703
X120.839Y-61.353
X121.102Y-84.865
X121.339Y-38.603
X121.339Y-99.103
X121.589Y-78.853
X121.589Y-46.603
X121.589Y-119.478
X121.589Y-82.104
X121.714Y-27.978
X122.089Y-131.853
X122.839Y-100.603
X123.089Y-42.903
X123.139Y-20.703
X123.282Y-118.353
X123.539Y-61.303
X123.839Y-55.853
X124.339Y-127.853
X125.139Y-44.303
X125.589Y-85.353
X125.739Y-63.103
X125.964Y-91.978
X126.089Y-60.353
X126.589Y-127.103
X126.839Y-93.853
X127.339Y-62.603
X127.539Y-129.503
X127.589Y-66.508
X127.589Y-124.103
X127.839Y-75.103
X127.939Y-41.957
X128.139Y-76.703
X128.599Y-107.103
X128.839Y-23.603
X128.839Y-29.853
X129.139Y-41.903
X129.339Y-96.509
X129.589Y-60.353
X130.139Y-78.682
X130.57Y-81.833
X130.589Y-27.353
X130.589Y-29.353
X130.839Y-38.853
X131.089Y-25.853
X131.089Y-62.103
X131.089Y-97.603
X131.339Y-48.104
X131.339Y-100.103
X131.839Y-45.828
X131.839Y-83.603
X132.043Y-40.057
X132.089Y-29.378
X132.215Y-49.378
X132.339Y-78.853
X132.589Y-66.603
X132.839Y-75.103
X133.139Y-78.103
X133.598Y-102.612
X133.739Y-42.703
X133.839Y-95.603
X134.839Y-64.853
X134.868Y-25.828
X135.089Y-46.853
X135.089Y-50.853
X135.089Y-97.828
X135.839Y-58.103
X135.839Y-114.603
X136.089Y-61.957
X136.089Y-66.603
X136.216Y-33.603
X136.839Y-101.103
X136.939Y-29.303
X137.089Y-50.353
X137.739Y-41.503
X137.839Y-45.103
X137.958Y-98.734
X138.064Y-115.628
X138.089Y-23.603
X138.089Y-127.103
X138.214Y-39.103
X138.589Y-113.603
X138.839Y-38.603
X138.839Y-48.103
X138.939Y-79.703
X139.045Y-29.008
X139.089Y-27.353
X139.339Y-116.103
X139.589Y-98.603
X139.839Y-82.104
X140.839Y-49.353
X140.839Y-95.853
X141.089Y-44.603
X141.339Y-41.853
X141.539Y-72.603
X141.589Y-83.878
X141.714Y-92.728
X141.852Y-79.34
X142.589Y-67.353
X143.089Y-66.353
X143.839Y-40.853
X144.839Y-65.603
X145.939Y-35.503
X145.939Y-76.703
X146.089Y-82.104
X146.139Y-66.878
X146.227Y-62.215
X146.339Y-112.603
X146.839Y-118.103
X146.92Y-54.603
X147.089Y-81.353
X147.089Y-95.853
X147.589Y-101.353
X147.839Y-25.353
X148.089Y-99.853
X148.589Y-81.483
X148.589Y-115.353
X148.839Y-23.603
X149.089Y-26.853
X149.339Y-46.603
X149.499Y-75.853
X149.589Y-48.104
X150.215Y-49.378
X150.339Y-67.353
X150.765Y-95.927
X151.292Y-65.4
X151.339Y-24.103
X151.339Y-31.103
X151.339Y-42.103
X151.589Y-110.103
X151.839Y-102.353
X151.839Y-119.353
X152.185Y-64.449
X152.945Y-64.958
X153.089Y-45.828
X153.089Y-51.853
X153.102Y-115.09
X153.589Y-70.853
X153.999Y-39.603
X154.589Y-23.353
X154.839Y-50.103
X155.089Y-48.104
X155.739Y-77.703
X155.839Y-88.353
X155.839Y-111.353
X156.339Y-29.603
X156.339Y-41.757
X157.089Y-114.603
X157.089Y-116.103
X157.32Y-47.333
X157.339Y-26.603
X157.589Y-101.603
X158.054Y-100.213
X158.089Y-80.603
X158.089Y-82.104
X158.818Y-44.831
X159.37Y-25.633
X159.589Y-83.378
X159.602Y-78.59
X159.839Y-73.103
X160.089Y-94.353
X160.769Y-92.033
X161.589Y-66.603
X162.589Y-63.353
X163.839Y-82.104
X164.339Y-66.378
X164.589Y-59.603
X164.589Y-113.103
X164.599Y-107.103
X164.839Y-25.103
X164.839Y-96.603
X165.089Y-39.853
X165.089Y-118.103
X165.389Y-80.103
X166.089Y-27.853
X166.139Y-30.103
X166.32Y-81.333
X166.339Y-61.603
X166.339Y-98.353
X166.589Y-69.353
X166.589Y-76.353
X166.739Y-115.103
X167.089Y-46.353
X167.339Y-48.103
X167.589Y-127.353
X168.339Y-70.103
X168.49Y-49.103
X168.714Y-95.978
X169.589Y-58.353
X169.839Y-24.603
X169.839Y-30.853
X169.839Y-101.853
X169.839Y-108.603
X169.839Y-119.353
X170.589Y-42.103
X170.589Y-103.353
X170.939Y-44.453
X171.089Y-32.103
X171.089Y-63.603
X171.102Y-114.59
X171.999Y-40.103
X172.839Y-30.353
X172.839Y-48.103
X172.839Y-100.853
X173.089Y-62.43
X173.589Y-24.603
X173.589Y-41.603
X173.839Y-29.103
X173.839Y-88.853
X174.068Y-98.581
X174.339Y-127.103
X174.839Y-83.853
X175.089Y-47.603
X175.339Y-115.103
X175.339Y-27.853
X175.339Y-117.103
X175.515Y-98.483
X175.839Y-80.603
X175.839Y-82.104
X176.339Y-111.924
X176.839Y-72.853
X177.089Y-44.353
X177.589Y-83.878
X177.727Y-79.215
X178.939Y-77.903
X179.214Y-92.228
X180.339Y-65.603
X180.589Y-64.103
X181.839Y-82.104
X182.089Y-66.378
X182.227Y-62.382
X182.464Y-59.728
X182.589Y-45.353
X182.599Y-36.103
X182.739Y-49.703
X182.839Y-25.103
X183.089Y-118.103
X183.839Y-101.353
X184.089Y-99.603
X184.089Y-113.103
X184.214Y-50.228
X184.32Y-82.083
X184.339Y-68.353
X184.339Y-80.603
X184.589Y-115.353
X184.839Y-26.603
X184.852Y-101.365
X185.089Y-47.603
X185.339Y-95.103
X185.499Y-75.853
X185.589Y-28.103
X185.839Y-41.603
X186.089Y-58.353
X186.589Y-45.553
X186.589Y-66.603
X187.589Y-24.103
X187.589Y-109.853
X187.786Y-111.645
X187.839Y-31.103
X187.839Y-62.353
X187.839Y-119.353
X188.715Y-62.479
X188.839Y-32.103
X188.839Y-50.103
X188.964Y-63.728
X189.064Y-24.828
X189.102Y-115.09
X189.339Y-107.103
X189.339Y-113.853
X189.838Y-69.854
X190.839Y-30.603
X190.839Y-50.103
X191.089Y-48.104
X191.778Y-88.603
X191.839Y-127.353
X192.589Y-23.103
X193.318Y-26.331
X193.339Y-48.104
X193.544Y-116.174
X193.839Y-40.353
X193.839Y-82.104
X193.839Y-117.603
X193.939Y-80.703
X194.589Y-112.424
X194.839Y-34.603
X195.089Y-44.103
X195.37Y-25.633
X195.589Y-83.378
X195.602Y-78.59
X195.839Y-72.853
X196.539Y-66.703
X197.739Y-63.503
X198.939Y-64.103
X198.999Y-103.603
X200.089Y-66.378
X200.227Y-61.715
X200.539Y-77.303
X200.589Y-59.853
X200.769Y-92.533
X200.778Y-29.853
X201.089Y-79.353
X201.089Y-95.199
X201.089Y-117.853
X202.089Y-99.104
X202.139Y-84.103
X202.19Y-97.704
X202.339Y-28.103
X202.339Y-38.003
X202.589Y-115.603
X202.839Y-46.353
X203.589Y-48.288
X203.589Y-75.603
X203.589Y-114.103
X204.256Y-111.645
X204.52Y-76.103
X204.589Y-58.603
X204.714Y-30.228
X204.939Y-83.903
X205.089Y-82.104
X205.223Y-119.987
X205.589Y-75.449
X205.839Y-50.853
X206.089Y-80.853
X206.339Y-31.603
X206.827Y-44.84
X207.089Y-49.603
X207.089Y-82.103
X207.089Y-114.828
X207.214Y-24.728
X207.589Y-65.104
X207.839Y-79.157
X207.999Y-40.603
X207.999Y-59.603
X208.089Y-22.853
X208.139Y-77.703
X208.339Y-113.353
X208.339Y-121.603
X209.089Y-47.353
X209.089Y-49.603
X209.089Y-64.353
X209.339Y-29.603
X209.599Y-106.853
X209.839Y-96.603
X210.089Y-47.353
X210.589Y-45.853
X210.839Y-114.603
X211.339Y-47.603
X211.339Y-116.104
X211.589Y-26.853
X212.089Y-97.353
X212.589Y-23.853
X212.589Y-30.353
X213.049Y-25.353
X213.589Y-100.378
X213.814Y-95.628
X214.278Y-88.603
X215.339Y-79.303
X215.839Y-81.603
X216.528Y-67.103
X216.528Y-71.603
X216.839Y-40.603
X217.089Y-59.853
X217.269Y-44.673
X217.589Y-66.353
X217.839Y-112.103
X218.089Y-83.878
X218.352Y-79.34
X218.589Y-25.353
X218.599Y-124.103
X220.089Y-46.603
X220.339Y-114.603
X220.589Y-26.103
X220.589Y-66.878
X220.727Y-62.215
X221.227Y-111.215
X221.497Y-43.445
X221.839Y-24.103
X222.089Y-77.603
X222.739Y-50.803
X222.839Y-31.003
X222.839Y-118.903
T3
X75.639Y-59.903
X104.614Y-83.528
X190.339Y-42.103
X193.839Y-100.103
T2
G00X78.864Y-21.753
M15
G01X78.864Y-22.253
M16
G05
G00X78.864Y-24.753
M15
G01X78.864Y-25.253
M16
G05
G00X78.864Y-28.753
M15
G01X78.864Y-29.253
M16
G05
G00X80.614Y-30.253
M15
G01X80.614Y-30.753
M16
G05
G00X83.064Y-30.253
M15
G01X83.064Y-30.753
M16
G05
G00X84.814Y-21.753
M15
G01X84.814Y-22.253
M16
G05
G00X84.814Y-24.753
M15
G01X84.814Y-25.253
M16
G05
G00X84.814Y-28.753
M15
G01X84.814Y-29.253
M16
G05
G00X98.989Y-68.253
M15
G01X99.489Y-68.253
M16
G05
G00X98.989Y-74.203
M15
G01X99.489Y-74.203
M16
G05
G00X101.989Y-68.253
M15
G01X102.489Y-68.253
M16
G05
G00X101.989Y-74.203
M15
G01X102.489Y-74.203
M16
G05
G00X105.989Y-68.253
M15
G01X106.489Y-68.253
M16
G05
G00X105.989Y-74.203
M15
G01X106.489Y-74.203
M16
G05
G00X107.489Y-70.003
M15
G01X107.989Y-70.003
M16
G05
G00X107.489Y-72.453
M15
G01X107.989Y-72.453
M16
G05
M30
