G04 #@! TF.GenerationSoftware,KiCad,Pcbnew,8.0.6*
G04 #@! TF.CreationDate,2024-11-23T15:25:56+01:00*
G04 #@! TF.ProjectId,NomadKeyboard,4e6f6d61-644b-4657-9962-6f6172642e6b,rev?*
G04 #@! TF.SameCoordinates,Original*
G04 #@! TF.FileFunction,Soldermask,Top*
G04 #@! TF.FilePolarity,Negative*
%FSLAX46Y46*%
G04 Gerber Fmt 4.6, Leading zero omitted, Abs format (unit mm)*
G04 Created by KiCad (PCBNEW 8.0.6) date 2024-11-23 15:25:56*
%MOMM*%
%LPD*%
G01*
G04 APERTURE LIST*
G04 Aperture macros list*
%AMRotRect*
0 Rectangle, with rotation*
0 The origin of the aperture is its center*
0 $1 length*
0 $2 width*
0 $3 Rotation angle, in degrees counterclockwise*
0 Add horizontal line*
21,1,$1,$2,0,0,$3*%
%AMFreePoly0*
4,1,6,1.000000,0.000000,0.500000,-0.750000,-0.500000,-0.750000,-0.500000,0.750000,0.500000,0.750000,1.000000,0.000000,1.000000,0.000000,$1*%
%AMFreePoly1*
4,1,6,0.500000,-0.750000,-0.650000,-0.750000,-0.150000,0.000000,-0.650000,0.750000,0.500000,0.750000,0.500000,-0.750000,0.500000,-0.750000,$1*%
G04 Aperture macros list end*
%ADD10R,0.950000X1.300000*%
%ADD11RotRect,1.300000X0.950000X210.000000*%
%ADD12C,1.800000*%
%ADD13C,3.000000*%
%ADD14C,5.200000*%
%ADD15R,1.700000X1.000000*%
%ADD16R,1.600000X2.200000*%
%ADD17RotRect,1.700000X1.000000X120.000000*%
%ADD18RotRect,1.600000X2.200000X120.000000*%
%ADD19C,4.700000*%
%ADD20C,1.200000*%
%ADD21O,1.700000X2.500000*%
%ADD22R,1.300000X0.950000*%
%ADD23FreePoly0,90.000000*%
%ADD24FreePoly1,90.000000*%
%ADD25R,1.500000X1.500000*%
%ADD26FreePoly0,0.000000*%
%ADD27FreePoly0,180.000000*%
%ADD28O,2.500000X1.700000*%
%ADD29FreePoly1,0.000000*%
%ADD30O,2.500000X1.500000*%
%ADD31O,1.500000X2.500000*%
G04 APERTURE END LIST*
D10*
X90589120Y-62077640D03*
X90589120Y-65627640D03*
X133339120Y-45827640D03*
X133339120Y-49377640D03*
X151839120Y-45827640D03*
X151839120Y-49377640D03*
X169839120Y-45552640D03*
X169839120Y-49102640D03*
X185339120Y-45552640D03*
X185339120Y-49102640D03*
X205839120Y-45827640D03*
X205839120Y-49377640D03*
X90839120Y-95827640D03*
X90839120Y-99377640D03*
D11*
X108916907Y-138582469D03*
X111991297Y-136807469D03*
X128676315Y-127615140D03*
X125601925Y-129390140D03*
D10*
X151839120Y-113827640D03*
X151839120Y-117377640D03*
D12*
X90299100Y-69102600D03*
D13*
X89799100Y-72802600D03*
X84799100Y-75002600D03*
D14*
X84799100Y-69102600D03*
D13*
X79799100Y-72802600D03*
D12*
X79299100Y-69102600D03*
D15*
X82049100Y-65103600D03*
X82049100Y-63703600D03*
X87549100Y-63703600D03*
X87549100Y-65103600D03*
D16*
X81999100Y-75002600D03*
X92699100Y-72802600D03*
D12*
X167299100Y-52102600D03*
D13*
X166799100Y-55802600D03*
X161799100Y-58002600D03*
D14*
X161799100Y-52102600D03*
D13*
X156799100Y-55802600D03*
D12*
X156299100Y-52102600D03*
D15*
X159049100Y-48103600D03*
X159049100Y-46703600D03*
X164549100Y-46703600D03*
X164549100Y-48103600D03*
D16*
X158999100Y-58002600D03*
X169699100Y-55802600D03*
D12*
X90299100Y-103102600D03*
D13*
X89799100Y-106802600D03*
X84799100Y-109002600D03*
D14*
X84799100Y-103102600D03*
D13*
X79799100Y-106802600D03*
D12*
X79299100Y-103102600D03*
D15*
X82049100Y-99103600D03*
X82049100Y-97703600D03*
X87549100Y-97703600D03*
X87549100Y-99103600D03*
D16*
X81999100Y-109002600D03*
X92699100Y-106802600D03*
D12*
X126799100Y-69102600D03*
D13*
X126299100Y-72802600D03*
X121299100Y-75002600D03*
D14*
X121299100Y-69102600D03*
D13*
X116299100Y-72802600D03*
D12*
X115799100Y-69102600D03*
D15*
X118549100Y-65103600D03*
X118549100Y-63703600D03*
X124049100Y-63703600D03*
X124049100Y-65103600D03*
D16*
X118499100Y-75002600D03*
X129199100Y-72802600D03*
D12*
X122731505Y-130283240D03*
D13*
X119277211Y-131700227D03*
X114871955Y-128470100D03*
D14*
X119981505Y-125520100D03*
D13*
X114277211Y-123039973D03*
D12*
X117231505Y-120756960D03*
D17*
X122069741Y-121139030D03*
X123282176Y-120439030D03*
X126032176Y-125202170D03*
X124819741Y-125902170D03*
D18*
X113471955Y-126045229D03*
X120727211Y-134211701D03*
D12*
X149299100Y-103102600D03*
D13*
X148799100Y-106802600D03*
X143799100Y-109002600D03*
D14*
X143799100Y-103102600D03*
D13*
X138799100Y-106802600D03*
D12*
X138299100Y-103102600D03*
D15*
X141049100Y-99103600D03*
X141049100Y-97703600D03*
X146549100Y-97703600D03*
X146549100Y-99103600D03*
D16*
X140999100Y-109002600D03*
X151699100Y-106802600D03*
D12*
X185299100Y-103102600D03*
D13*
X184799100Y-106802600D03*
X179799100Y-109002600D03*
D14*
X179799100Y-103102600D03*
D13*
X174799100Y-106802600D03*
D12*
X174299100Y-103102600D03*
D15*
X177049100Y-99103600D03*
X177049100Y-97703600D03*
X182549100Y-97703600D03*
X182549100Y-99103600D03*
D16*
X176999100Y-109002600D03*
X187699100Y-106802600D03*
D12*
X167299100Y-120102600D03*
D13*
X166799100Y-123802600D03*
X161799100Y-126002600D03*
D14*
X161799100Y-120102600D03*
D13*
X156799100Y-123802600D03*
D12*
X156299100Y-120102600D03*
D15*
X159049100Y-116103600D03*
X159049100Y-114703600D03*
X164549100Y-114703600D03*
X164549100Y-116103600D03*
D16*
X158999100Y-126002600D03*
X169699100Y-123802600D03*
D12*
X216799100Y-86102600D03*
D13*
X216299100Y-89802600D03*
X211299100Y-92002600D03*
D14*
X211299100Y-86102600D03*
D13*
X206299100Y-89802600D03*
D12*
X205799100Y-86102600D03*
D15*
X208549100Y-82103600D03*
X208549100Y-80703600D03*
X214049100Y-80703600D03*
X214049100Y-82103600D03*
D16*
X208499100Y-92002600D03*
X219199100Y-89802600D03*
D12*
X212299100Y-103102600D03*
D13*
X211799100Y-106802600D03*
X206799100Y-109002600D03*
D14*
X206799100Y-103102600D03*
D13*
X201799100Y-106802600D03*
D12*
X201299100Y-103102600D03*
D15*
X204049100Y-99103600D03*
X204049100Y-97703600D03*
X209549100Y-97703600D03*
X209549100Y-99103600D03*
D16*
X203999100Y-109002600D03*
X214699100Y-106802600D03*
D19*
X190339120Y-42102640D03*
D10*
X92339120Y-79827640D03*
X92339120Y-83377640D03*
X128809120Y-62957640D03*
X128809120Y-66507640D03*
X147339120Y-63327640D03*
X147339120Y-66877640D03*
X165339120Y-62827640D03*
X165339120Y-66377640D03*
X183339120Y-62827640D03*
X183339120Y-66377640D03*
X201339120Y-62827640D03*
X201339120Y-66377640D03*
D12*
X185299100Y-52102600D03*
D13*
X184799100Y-55802600D03*
X179799100Y-58002600D03*
D14*
X179799100Y-52102600D03*
D13*
X174799100Y-55802600D03*
D12*
X174299100Y-52102600D03*
D15*
X177049100Y-48103600D03*
X177049100Y-46703600D03*
X182549100Y-46703600D03*
X182549100Y-48103600D03*
D16*
X176999100Y-58002600D03*
X187699100Y-55802600D03*
D12*
X162799100Y-69102600D03*
D13*
X162299100Y-72802600D03*
X157299100Y-75002600D03*
D14*
X157299100Y-69102600D03*
D13*
X152299100Y-72802600D03*
D12*
X151799100Y-69102600D03*
D15*
X154549100Y-65103600D03*
X154549100Y-63703600D03*
X160049100Y-63703600D03*
X160049100Y-65103600D03*
D16*
X154499100Y-75002600D03*
X165199100Y-72802600D03*
D12*
X144799100Y-69102600D03*
D13*
X144299100Y-72802600D03*
X139299100Y-75002600D03*
D14*
X139299100Y-69102600D03*
D13*
X134299100Y-72802600D03*
D12*
X133799100Y-69102600D03*
D15*
X136549100Y-65103600D03*
X136549100Y-63703600D03*
X142049100Y-63703600D03*
X142049100Y-65103600D03*
D16*
X136499100Y-75002600D03*
X147199100Y-72802600D03*
D12*
X176299100Y-86102600D03*
D13*
X175799100Y-89802600D03*
X170799100Y-92002600D03*
D14*
X170799100Y-86102600D03*
D13*
X165799100Y-89802600D03*
D12*
X165299100Y-86102600D03*
D15*
X168049100Y-82103600D03*
X168049100Y-80703600D03*
X173549100Y-80703600D03*
X173549100Y-82103600D03*
D16*
X167999100Y-92002600D03*
X178699100Y-89802600D03*
D12*
X203299100Y-52102600D03*
D13*
X202799100Y-55802600D03*
X197799100Y-58002600D03*
D14*
X197799100Y-52102600D03*
D13*
X192799100Y-55802600D03*
D12*
X192299100Y-52102600D03*
D15*
X195049100Y-48103600D03*
X195049100Y-46703600D03*
X200549100Y-46703600D03*
X200549100Y-48103600D03*
D16*
X194999100Y-58002600D03*
X205699100Y-55802600D03*
D12*
X90299100Y-86102600D03*
D13*
X89799100Y-89802600D03*
X84799100Y-92002600D03*
D14*
X84799100Y-86102600D03*
D13*
X79799100Y-89802600D03*
D12*
X79299100Y-86102600D03*
D15*
X82049100Y-82103600D03*
X82049100Y-80703600D03*
X87549100Y-80703600D03*
X87549100Y-82103600D03*
D16*
X81999100Y-92002600D03*
X92699100Y-89802600D03*
D12*
X221299100Y-120102600D03*
D13*
X220799100Y-123802600D03*
X215799100Y-126002600D03*
D14*
X215799100Y-120102600D03*
D13*
X210799100Y-123802600D03*
D12*
X210299100Y-120102600D03*
D15*
X213049100Y-116103600D03*
X213049100Y-114703600D03*
X218549100Y-114703600D03*
X218549100Y-116103600D03*
D16*
X212999100Y-126002600D03*
X223699100Y-123802600D03*
D12*
X180799100Y-69102600D03*
D13*
X180299100Y-72802600D03*
X175299100Y-75002600D03*
D14*
X175299100Y-69102600D03*
D13*
X170299100Y-72802600D03*
D12*
X169799100Y-69102600D03*
D15*
X172549100Y-65103600D03*
X172549100Y-63703600D03*
X178049100Y-63703600D03*
X178049100Y-65103600D03*
D16*
X172499100Y-75002600D03*
X183199100Y-72802600D03*
D12*
X167299100Y-103102600D03*
D13*
X166799100Y-106802600D03*
X161799100Y-109002600D03*
D14*
X161799100Y-103102600D03*
D13*
X156799100Y-106802600D03*
D12*
X156299100Y-103102600D03*
D15*
X159049100Y-99103600D03*
X159049100Y-97703600D03*
X164549100Y-97703600D03*
X164549100Y-99103600D03*
D16*
X158999100Y-109002600D03*
X169699100Y-106802600D03*
D12*
X203299100Y-120102600D03*
D13*
X202799100Y-123802600D03*
X197799100Y-126002600D03*
D14*
X197799100Y-120102600D03*
D13*
X192799100Y-123802600D03*
D12*
X192299100Y-120102600D03*
D15*
X195049100Y-116103600D03*
X195049100Y-114703600D03*
X200549100Y-114703600D03*
X200549100Y-116103600D03*
D16*
X194999100Y-126002600D03*
X205699100Y-123802600D03*
D12*
X158299100Y-86102600D03*
D13*
X157799100Y-89802600D03*
X152799100Y-92002600D03*
D14*
X152799100Y-86102600D03*
D13*
X147799100Y-89802600D03*
D12*
X147299100Y-86102600D03*
D15*
X150049100Y-82103600D03*
X150049100Y-80703600D03*
X155549100Y-80703600D03*
X155549100Y-82103600D03*
D16*
X149999100Y-92002600D03*
X160699100Y-89802600D03*
D12*
X149299100Y-52102600D03*
D13*
X148799100Y-55802600D03*
X143799100Y-58002600D03*
D14*
X143799100Y-52102600D03*
D13*
X138799100Y-55802600D03*
D12*
X138299100Y-52102600D03*
D15*
X141049100Y-48103600D03*
X141049100Y-46703600D03*
X146549100Y-46703600D03*
X146549100Y-48103600D03*
D16*
X140999100Y-58002600D03*
X151699100Y-55802600D03*
D10*
X169839120Y-113327640D03*
X169839120Y-116877640D03*
D12*
X122299100Y-86102600D03*
D13*
X121799100Y-89802600D03*
X116799100Y-92002600D03*
D14*
X116799100Y-86102600D03*
D13*
X111799100Y-89802600D03*
D12*
X111299100Y-86102600D03*
D15*
X114049100Y-82103600D03*
X114049100Y-80703600D03*
X119549100Y-80703600D03*
X119549100Y-82103600D03*
D16*
X113999100Y-92002600D03*
X124699100Y-89802600D03*
D19*
X193839120Y-100102640D03*
D10*
X142839120Y-80327640D03*
X142839120Y-83877640D03*
X160839120Y-79827640D03*
X160839120Y-83377640D03*
X178839120Y-80327640D03*
X178839120Y-83877640D03*
X196839120Y-79827640D03*
X196839120Y-83377640D03*
X187839120Y-113827640D03*
X187839120Y-117377640D03*
X205839120Y-114827640D03*
X205839120Y-118377640D03*
X185839120Y-96827640D03*
X185839120Y-100377640D03*
X115839120Y-97327640D03*
X115839120Y-100877640D03*
X133839120Y-97827640D03*
X133839120Y-101377640D03*
X151839120Y-97327640D03*
X151839120Y-100877640D03*
X169839120Y-97102640D03*
X169839120Y-100652640D03*
X122839120Y-79577640D03*
X122839120Y-83127640D03*
X222339120Y-112927640D03*
X222339120Y-116477640D03*
D12*
X113299100Y-103102600D03*
D13*
X112799100Y-106802600D03*
X107799100Y-109002600D03*
D14*
X107799100Y-103102600D03*
D13*
X102799100Y-106802600D03*
D12*
X102299100Y-103102600D03*
D15*
X105049100Y-99103600D03*
X105049100Y-97703600D03*
X110549100Y-97703600D03*
X110549100Y-99103600D03*
D16*
X104999100Y-109002600D03*
X115699100Y-106802600D03*
D19*
X75639120Y-59902640D03*
X104614120Y-83527640D03*
D10*
X221939120Y-25627640D03*
X221939120Y-29177640D03*
D12*
X72299100Y-86102600D03*
D13*
X71799100Y-89802600D03*
X66799100Y-92002600D03*
D14*
X66799100Y-86102600D03*
D13*
X61799100Y-89802600D03*
D12*
X61299100Y-86102600D03*
D15*
X64049100Y-82103600D03*
X64049100Y-80703600D03*
X69549100Y-80703600D03*
X69549100Y-82103600D03*
D16*
X63999100Y-92002600D03*
X74699100Y-89802600D03*
D12*
X219049100Y-69102600D03*
D13*
X218549100Y-72802600D03*
X213549100Y-75002600D03*
D14*
X213549100Y-69102600D03*
D13*
X208549100Y-72802600D03*
D12*
X208049100Y-69102600D03*
D15*
X210799100Y-65103600D03*
X210799100Y-63703600D03*
X216299100Y-63703600D03*
X216299100Y-65103600D03*
D16*
X210749100Y-75002600D03*
X221449100Y-72802600D03*
D10*
X187839120Y-26052640D03*
X187839120Y-29602640D03*
D12*
X131299100Y-32102600D03*
D13*
X130799100Y-35802600D03*
X125799100Y-38002600D03*
D14*
X125799100Y-32102600D03*
D13*
X120799100Y-35802600D03*
D12*
X120299100Y-32102600D03*
D15*
X123049100Y-28103600D03*
X123049100Y-26703600D03*
X128549100Y-26703600D03*
X128549100Y-28103600D03*
D16*
X122999100Y-38002600D03*
X133699100Y-35802600D03*
D12*
X54299100Y-120102600D03*
D13*
X53799100Y-123802600D03*
X48799100Y-126002600D03*
D14*
X48799100Y-120102600D03*
D13*
X43799100Y-123802600D03*
D12*
X43299100Y-120102600D03*
D15*
X46049100Y-116103600D03*
X46049100Y-114703600D03*
X51549100Y-114703600D03*
X51549100Y-116103600D03*
D16*
X45999100Y-126002600D03*
X56699100Y-123802600D03*
D12*
X72299100Y-69102600D03*
D13*
X71799100Y-72802600D03*
X66799100Y-75002600D03*
D14*
X66799100Y-69102600D03*
D13*
X61799100Y-72802600D03*
D12*
X61299100Y-69102600D03*
D15*
X64049100Y-65103600D03*
X64049100Y-63703600D03*
X69549100Y-63703600D03*
X69549100Y-65103600D03*
D16*
X63999100Y-75002600D03*
X74699100Y-72802600D03*
D10*
X56839120Y-97327640D03*
X56839120Y-100877640D03*
D20*
X80964120Y-20202640D03*
X80964120Y-27202640D03*
X82714120Y-20202640D03*
X82714120Y-27202640D03*
D21*
X78864120Y-29002640D03*
X84814120Y-29002640D03*
X78864120Y-25002640D03*
X84814120Y-25002640D03*
X78864120Y-22002640D03*
X84814120Y-22002640D03*
X80614120Y-30502640D03*
X83064120Y-30502640D03*
D10*
X133839120Y-25827640D03*
X133839120Y-29377640D03*
D12*
X90299100Y-120102600D03*
D13*
X89799100Y-123802600D03*
X84799100Y-126002600D03*
D14*
X84799100Y-120102600D03*
D13*
X79799100Y-123802600D03*
D12*
X79299100Y-120102600D03*
D15*
X82049100Y-116103600D03*
X82049100Y-114703600D03*
X87549100Y-114703600D03*
X87549100Y-116103600D03*
D16*
X81999100Y-126002600D03*
X92699100Y-123802600D03*
D10*
X78339120Y-42827640D03*
X78339120Y-46377640D03*
X74839120Y-114327640D03*
X74839120Y-117877640D03*
D22*
X101814120Y-63852640D03*
X105364120Y-63852640D03*
D15*
X107339120Y-59420870D03*
X107339120Y-60820870D03*
X101839120Y-60820870D03*
X101839120Y-59420870D03*
D10*
X56839120Y-113827640D03*
X56839120Y-117377640D03*
X91339120Y-113327640D03*
X91339120Y-116877640D03*
D12*
X194299100Y-86102600D03*
D13*
X193799100Y-89802600D03*
X188799100Y-92002600D03*
D14*
X188799100Y-86102600D03*
D13*
X183799100Y-89802600D03*
D12*
X183299100Y-86102600D03*
D15*
X186049100Y-82103600D03*
X186049100Y-80703600D03*
X191549100Y-80703600D03*
X191549100Y-82103600D03*
D16*
X185999100Y-92002600D03*
X196699100Y-89802600D03*
D10*
X219339120Y-80327640D03*
X219339120Y-83877640D03*
X56839120Y-79827640D03*
X56839120Y-83377640D03*
D23*
X99089120Y-90552640D03*
D24*
X99089120Y-89102640D03*
D12*
X140299100Y-86102600D03*
D13*
X139799100Y-89802600D03*
X134799100Y-92002600D03*
D14*
X134799100Y-86102600D03*
D13*
X129799100Y-89802600D03*
D12*
X129299100Y-86102600D03*
D15*
X132049100Y-82103600D03*
X132049100Y-80703600D03*
X137549100Y-80703600D03*
X137549100Y-82103600D03*
D16*
X131999100Y-92002600D03*
X142699100Y-89802600D03*
D12*
X54299100Y-32102600D03*
D13*
X53799100Y-35802600D03*
X48799100Y-38002600D03*
D14*
X48799100Y-32102600D03*
D13*
X43799100Y-35802600D03*
D12*
X43299100Y-32102600D03*
D15*
X46049100Y-28103600D03*
X46049100Y-26703600D03*
X51549100Y-26703600D03*
X51549100Y-28103600D03*
D16*
X45999100Y-38002600D03*
X56699100Y-35802600D03*
D10*
X74839120Y-79827640D03*
X74839120Y-83377640D03*
D12*
X54299100Y-49102600D03*
D13*
X53799100Y-52802600D03*
X48799100Y-55002600D03*
D14*
X48799100Y-49102600D03*
D13*
X43799100Y-52802600D03*
D12*
X43299100Y-49102600D03*
D15*
X46049100Y-45103600D03*
X46049100Y-43703600D03*
X51549100Y-43703600D03*
X51549100Y-45103600D03*
D16*
X45999100Y-55002600D03*
X56699100Y-52802600D03*
D10*
X56339120Y-62827640D03*
X56339120Y-66377640D03*
D12*
X221299100Y-52102600D03*
D13*
X220799100Y-55802600D03*
X215799100Y-58002600D03*
D14*
X215799100Y-52102600D03*
D13*
X210799100Y-55802600D03*
D12*
X210299100Y-52102600D03*
D15*
X213049100Y-48103600D03*
X213049100Y-46703600D03*
X218549100Y-46703600D03*
X218549100Y-48103600D03*
D16*
X212999100Y-58002600D03*
X223699100Y-55802600D03*
D10*
X214839120Y-96827640D03*
X214839120Y-100377640D03*
D12*
X72299100Y-103102600D03*
D13*
X71799100Y-106802600D03*
X66799100Y-109002600D03*
D14*
X66799100Y-103102600D03*
D13*
X61799100Y-106802600D03*
D12*
X61299100Y-103102600D03*
D15*
X64049100Y-99103600D03*
X64049100Y-97703600D03*
X69549100Y-97703600D03*
X69549100Y-99103600D03*
D16*
X63999100Y-109002600D03*
X74699100Y-106802600D03*
D12*
X131299100Y-103102600D03*
D13*
X130799100Y-106802600D03*
X125799100Y-109002600D03*
D14*
X125799100Y-103102600D03*
D13*
X120799100Y-106802600D03*
D12*
X120299100Y-103102600D03*
D15*
X123049100Y-99103600D03*
X123049100Y-97703600D03*
X128549100Y-97703600D03*
X128549100Y-99103600D03*
D16*
X122999100Y-109002600D03*
X133699100Y-106802600D03*
D12*
X54299100Y-86102600D03*
D13*
X53799100Y-89802600D03*
X48799100Y-92002600D03*
D14*
X48799100Y-86102600D03*
D13*
X43799100Y-89802600D03*
D12*
X43299100Y-86102600D03*
D15*
X46049100Y-82103600D03*
X46049100Y-80703600D03*
X51549100Y-80703600D03*
X51549100Y-82103600D03*
D16*
X45999100Y-92002600D03*
X56699100Y-89802600D03*
D10*
X56339120Y-42602640D03*
X56339120Y-46152640D03*
X74839120Y-96827640D03*
X74839120Y-100377640D03*
D25*
X107139120Y-49102640D03*
X109539120Y-49102640D03*
D26*
X106339120Y-49102640D03*
D27*
X110339120Y-49102640D03*
D12*
X221299100Y-32102600D03*
D13*
X220799100Y-35802600D03*
X215799100Y-38002600D03*
D14*
X215799100Y-32102600D03*
D13*
X210799100Y-35802600D03*
D12*
X210299100Y-32102600D03*
D15*
X213049100Y-28103600D03*
X213049100Y-26703600D03*
X218549100Y-26703600D03*
X218549100Y-28103600D03*
D16*
X212999100Y-38002600D03*
X223699100Y-35802600D03*
D10*
X205839120Y-25552640D03*
X205839120Y-29102640D03*
X61339120Y-62077640D03*
X61339120Y-65627640D03*
D12*
X90299100Y-49102600D03*
D13*
X89799100Y-52802600D03*
X84799100Y-55002600D03*
D14*
X84799100Y-49102600D03*
D13*
X79799100Y-52802600D03*
D12*
X79299100Y-49102600D03*
D15*
X82049100Y-45103600D03*
X82049100Y-43703600D03*
X87549100Y-43703600D03*
X87549100Y-45103600D03*
D16*
X81999100Y-55002600D03*
X92699100Y-52802600D03*
D10*
X221839120Y-44927640D03*
X221839120Y-48477640D03*
X74839120Y-42827640D03*
X74839120Y-46377640D03*
D12*
X167299100Y-32102600D03*
D13*
X166799100Y-35802600D03*
X161799100Y-38002600D03*
D14*
X161799100Y-32102600D03*
D13*
X156799100Y-35802600D03*
D12*
X156299100Y-32102600D03*
D15*
X159049100Y-28103600D03*
X159049100Y-26703600D03*
X164549100Y-26703600D03*
X164549100Y-28103600D03*
D16*
X158999100Y-38002600D03*
X169699100Y-35802600D03*
D10*
X169839120Y-25827640D03*
X169839120Y-29377640D03*
D12*
X54299100Y-69102600D03*
D13*
X53799100Y-72802600D03*
X48799100Y-75002600D03*
D14*
X48799100Y-69102600D03*
D13*
X43799100Y-72802600D03*
D12*
X43299100Y-69102600D03*
D15*
X46049100Y-65103600D03*
X46049100Y-63703600D03*
X51549100Y-63703600D03*
X51549100Y-65103600D03*
D16*
X45999100Y-75002600D03*
X56699100Y-72802600D03*
D12*
X72299100Y-49102600D03*
D13*
X71799100Y-52802600D03*
X66799100Y-55002600D03*
D14*
X66799100Y-49102600D03*
D13*
X61799100Y-52802600D03*
D12*
X61299100Y-49102600D03*
D15*
X64049100Y-45103600D03*
X64049100Y-43703600D03*
X69549100Y-43703600D03*
X69549100Y-45103600D03*
D16*
X63999100Y-55002600D03*
X74699100Y-52802600D03*
D10*
X74839120Y-25827640D03*
X74839120Y-29377640D03*
D12*
X149299100Y-32102600D03*
D13*
X148799100Y-35802600D03*
X143799100Y-38002600D03*
D14*
X143799100Y-32102600D03*
D13*
X138799100Y-35802600D03*
D12*
X138299100Y-32102600D03*
D15*
X141049100Y-28103600D03*
X141049100Y-26703600D03*
X146549100Y-26703600D03*
X146549100Y-28103600D03*
D16*
X140999100Y-38002600D03*
X151699100Y-35802600D03*
D12*
X106231505Y-139810140D03*
D13*
X102777211Y-141227127D03*
X98371955Y-137997000D03*
D14*
X103481505Y-135047000D03*
D13*
X97777211Y-132566873D03*
D12*
X100731505Y-130283860D03*
D17*
X105569741Y-130665930D03*
X106782176Y-129965930D03*
X109532176Y-134729070D03*
X108319741Y-135429070D03*
D18*
X96971955Y-135572129D03*
X104227211Y-143738601D03*
D10*
X221839120Y-63327640D03*
X221839120Y-66877640D03*
X56839120Y-26052640D03*
X56839120Y-29602640D03*
D12*
X54299100Y-103102600D03*
D13*
X53799100Y-106802600D03*
X48799100Y-109002600D03*
D14*
X48799100Y-103102600D03*
D13*
X43799100Y-106802600D03*
D12*
X43299100Y-103102600D03*
D15*
X46049100Y-99103600D03*
X46049100Y-97703600D03*
X51549100Y-97703600D03*
X51549100Y-99103600D03*
D16*
X45999100Y-109002600D03*
X56699100Y-106802600D03*
D20*
X97439120Y-72102640D03*
X104439120Y-72102640D03*
X97439120Y-70352640D03*
X104439120Y-70352640D03*
D28*
X106239120Y-74202640D03*
X106239120Y-68252640D03*
X102239120Y-74202640D03*
X102239120Y-68252640D03*
X99239120Y-74202640D03*
X99239120Y-68252640D03*
X107739120Y-72452640D03*
X107739120Y-70002640D03*
D12*
X149299100Y-120102600D03*
D13*
X148799100Y-123802600D03*
X143799100Y-126002600D03*
D14*
X143799100Y-120102600D03*
D13*
X138799100Y-123802600D03*
D12*
X138299100Y-120102600D03*
D15*
X141049100Y-116103600D03*
X141049100Y-114703600D03*
X146549100Y-114703600D03*
X146549100Y-116103600D03*
D16*
X140999100Y-126002600D03*
X151699100Y-123802600D03*
D12*
X72299100Y-120102600D03*
D13*
X71799100Y-123802600D03*
X66799100Y-126002600D03*
D14*
X66799100Y-120102600D03*
D13*
X61799100Y-123802600D03*
D12*
X61299100Y-120102600D03*
D15*
X64049100Y-116103600D03*
X64049100Y-114703600D03*
X69549100Y-114703600D03*
X69549100Y-116103600D03*
D16*
X63999100Y-126002600D03*
X74699100Y-123802600D03*
D12*
X203299100Y-32102600D03*
D13*
X202799100Y-35802600D03*
X197799100Y-38002600D03*
D14*
X197799100Y-32102600D03*
D13*
X192799100Y-35802600D03*
D12*
X192299100Y-32102600D03*
D15*
X195049100Y-28103600D03*
X195049100Y-26703600D03*
X200549100Y-26703600D03*
X200549100Y-28103600D03*
D16*
X194999100Y-38002600D03*
X205699100Y-35802600D03*
D12*
X185299100Y-120102600D03*
D13*
X184799100Y-123802600D03*
X179799100Y-126002600D03*
D14*
X179799100Y-120102600D03*
D13*
X174799100Y-123802600D03*
D12*
X174299100Y-120102600D03*
D15*
X177049100Y-116103600D03*
X177049100Y-114703600D03*
X182549100Y-114703600D03*
X182549100Y-116103600D03*
D16*
X176999100Y-126002600D03*
X187699100Y-123802600D03*
D10*
X151339120Y-25827640D03*
X151339120Y-29377640D03*
D26*
X119089120Y-21702640D03*
D29*
X120539120Y-21702640D03*
D12*
X185299100Y-32102600D03*
D13*
X184799100Y-35802600D03*
X179799100Y-38002600D03*
D14*
X179799100Y-32102600D03*
D13*
X174799100Y-35802600D03*
D12*
X174299100Y-32102600D03*
D15*
X177049100Y-28103600D03*
X177049100Y-26703600D03*
X182549100Y-26703600D03*
X182549100Y-28103600D03*
D16*
X176999100Y-38002600D03*
X187699100Y-35802600D03*
D30*
X113459120Y-19942640D03*
X113459120Y-22482640D03*
X113459120Y-25022640D03*
X113459120Y-27562640D03*
X113459120Y-30102640D03*
X113459120Y-32642640D03*
X113459120Y-35182640D03*
X113459120Y-37722640D03*
X113459120Y-40262640D03*
D31*
X110419120Y-40762640D03*
X107879120Y-40762640D03*
X105339120Y-40762640D03*
X102799120Y-40762640D03*
X100259120Y-40762640D03*
D30*
X97219120Y-40262640D03*
X97219120Y-37722640D03*
X97219120Y-35182640D03*
X97219120Y-32642640D03*
X97219120Y-30102640D03*
X97219120Y-27562640D03*
X97219120Y-25022640D03*
X97219120Y-22482640D03*
X97219120Y-19942640D03*
D12*
X131299100Y-52102600D03*
D13*
X130799100Y-55802600D03*
X125799100Y-58002600D03*
D14*
X125799100Y-52102600D03*
D13*
X120799100Y-55802600D03*
D12*
X120299100Y-52102600D03*
D15*
X123049100Y-48103600D03*
X123049100Y-46703600D03*
X128549100Y-46703600D03*
X128549100Y-48103600D03*
D16*
X122999100Y-58002600D03*
X133699100Y-55802600D03*
D12*
X72299100Y-32102600D03*
D13*
X71799100Y-35802600D03*
X66799100Y-38002600D03*
D14*
X66799100Y-32102600D03*
D13*
X61799100Y-35802600D03*
D12*
X61299100Y-32102600D03*
D15*
X64049100Y-28103600D03*
X64049100Y-26703600D03*
X69549100Y-26703600D03*
X69549100Y-28103600D03*
D16*
X63999100Y-38002600D03*
X74699100Y-35802600D03*
D12*
X198799100Y-69102600D03*
D13*
X198299100Y-72802600D03*
X193299100Y-75002600D03*
D14*
X193299100Y-69102600D03*
D13*
X188299100Y-72802600D03*
D12*
X187799100Y-69102600D03*
D15*
X190549100Y-65103600D03*
X190549100Y-63703600D03*
X196049100Y-63703600D03*
X196049100Y-65103600D03*
D16*
X190499100Y-75002600D03*
X201199100Y-72802600D03*
M02*
