M48
; DRILL file {KiCad 8.0.6} date 2024-11-23T15:25:54+0100
; FORMAT={-:-/ absolute / metric / decimal}
; #@! TF.CreationDate,2024-11-23T15:25:54+01:00
; #@! TF.GenerationSoftware,Kicad,Pcbnew,8.0.6
; #@! TF.FileFunction,NonPlated,1,2,NPTH
FMAT,2
METRIC
; #@! TA.AperFunction,NonPlated,NPTH,ComponentDrill
T1C1.200
; #@! TA.AperFunction,NonPlated,NPTH,ComponentDrill
T2C1.800
; #@! TA.AperFunction,NonPlated,NPTH,ComponentDrill
T3C3.000
; #@! TA.AperFunction,NonPlated,NPTH,ComponentDrill
T4C5.200
%
G90
G05
T1
X80.964Y-20.203
X80.964Y-27.203
X82.714Y-20.203
X82.714Y-27.203
X97.439Y-70.353
X97.439Y-72.103
X104.439Y-70.353
X104.439Y-72.103
T2
X43.299Y-32.103
X43.299Y-49.103
X43.299Y-69.103
X43.299Y-86.103
X43.299Y-103.103
X43.299Y-120.103
X54.299Y-32.103
X54.299Y-49.103
X54.299Y-69.103
X54.299Y-86.103
X54.299Y-103.103
X54.299Y-120.103
X61.299Y-32.103
X61.299Y-49.103
X61.299Y-69.103
X61.299Y-86.103
X61.299Y-103.103
X61.299Y-120.103
X72.299Y-32.103
X72.299Y-49.103
X72.299Y-69.103
X72.299Y-86.103
X72.299Y-103.103
X72.299Y-120.103
X79.299Y-49.103
X79.299Y-69.103
X79.299Y-86.103
X79.299Y-103.103
X79.299Y-120.103
X90.299Y-49.103
X90.299Y-69.103
X90.299Y-86.103
X90.299Y-103.103
X90.299Y-120.103
X100.732Y-130.284
X102.299Y-103.103
X106.232Y-139.81
X111.299Y-86.103
X113.299Y-103.103
X115.799Y-69.103
X117.232Y-120.757
X120.299Y-32.103
X120.299Y-52.103
X120.299Y-103.103
X122.299Y-86.103
X122.732Y-130.283
X126.799Y-69.103
X129.299Y-86.103
X131.299Y-32.103
X131.299Y-52.103
X131.299Y-103.103
X133.799Y-69.103
X138.299Y-32.103
X138.299Y-52.103
X138.299Y-103.103
X138.299Y-120.103
X140.299Y-86.103
X144.799Y-69.103
X147.299Y-86.103
X149.299Y-32.103
X149.299Y-52.103
X149.299Y-103.103
X149.299Y-120.103
X151.799Y-69.103
X156.299Y-32.103
X156.299Y-52.103
X156.299Y-103.103
X156.299Y-120.103
X158.299Y-86.103
X162.799Y-69.103
X165.299Y-86.103
X167.299Y-32.103
X167.299Y-52.103
X167.299Y-103.103
X167.299Y-120.103
X169.799Y-69.103
X174.299Y-32.103
X174.299Y-52.103
X174.299Y-103.103
X174.299Y-120.103
X176.299Y-86.103
X180.799Y-69.103
X183.299Y-86.103
X185.299Y-32.103
X185.299Y-52.103
X185.299Y-103.103
X185.299Y-120.103
X187.799Y-69.103
X192.299Y-32.103
X192.299Y-52.103
X192.299Y-120.103
X194.299Y-86.103
X198.799Y-69.103
X201.299Y-103.103
X203.299Y-32.103
X203.299Y-52.103
X203.299Y-120.103
X205.799Y-86.103
X208.049Y-69.103
X210.299Y-32.103
X210.299Y-52.103
X210.299Y-120.103
X212.299Y-103.103
X216.799Y-86.103
X219.049Y-69.103
X221.299Y-32.103
X221.299Y-52.103
X221.299Y-120.103
T3
X43.799Y-35.803
X43.799Y-52.803
X43.799Y-72.803
X43.799Y-89.803
X43.799Y-106.803
X43.799Y-123.803
X48.799Y-38.003
X48.799Y-55.003
X48.799Y-75.003
X48.799Y-92.003
X48.799Y-109.003
X48.799Y-126.003
X53.799Y-35.803
X53.799Y-52.803
X53.799Y-72.803
X53.799Y-89.803
X53.799Y-106.803
X53.799Y-123.803
X61.799Y-35.803
X61.799Y-52.803
X61.799Y-72.803
X61.799Y-89.803
X61.799Y-106.803
X61.799Y-123.803
X66.799Y-38.003
X66.799Y-55.003
X66.799Y-75.003
X66.799Y-92.003
X66.799Y-109.003
X66.799Y-126.003
X71.799Y-35.803
X71.799Y-52.803
X71.799Y-72.803
X71.799Y-89.803
X71.799Y-106.803
X71.799Y-123.803
X79.799Y-52.803
X79.799Y-72.803
X79.799Y-89.803
X79.799Y-106.803
X79.799Y-123.803
X84.799Y-55.003
X84.799Y-75.003
X84.799Y-92.003
X84.799Y-109.003
X84.799Y-126.003
X89.799Y-52.803
X89.799Y-72.803
X89.799Y-89.803
X89.799Y-106.803
X89.799Y-123.803
X97.777Y-132.567
X98.372Y-137.997
X102.777Y-141.227
X102.799Y-106.803
X107.799Y-109.003
X111.799Y-89.803
X112.799Y-106.803
X114.277Y-123.04
X114.872Y-128.47
X116.299Y-72.803
X116.799Y-92.003
X119.277Y-131.7
X120.799Y-35.803
X120.799Y-55.803
X120.799Y-106.803
X121.299Y-75.003
X121.799Y-89.803
X125.799Y-38.003
X125.799Y-58.003
X125.799Y-109.003
X126.299Y-72.803
X129.799Y-89.803
X130.799Y-35.803
X130.799Y-55.803
X130.799Y-106.803
X134.299Y-72.803
X134.799Y-92.003
X138.799Y-35.803
X138.799Y-55.803
X138.799Y-106.803
X138.799Y-123.803
X139.299Y-75.003
X139.799Y-89.803
X143.799Y-38.003
X143.799Y-58.003
X143.799Y-109.003
X143.799Y-126.003
X144.299Y-72.803
X147.799Y-89.803
X148.799Y-35.803
X148.799Y-55.803
X148.799Y-106.803
X148.799Y-123.803
X152.299Y-72.803
X152.799Y-92.003
X156.799Y-35.803
X156.799Y-55.803
X156.799Y-106.803
X156.799Y-123.803
X157.299Y-75.003
X157.799Y-89.803
X161.799Y-38.003
X161.799Y-58.003
X161.799Y-109.003
X161.799Y-126.003
X162.299Y-72.803
X165.799Y-89.803
X166.799Y-35.803
X166.799Y-55.803
X166.799Y-106.803
X166.799Y-123.803
X170.299Y-72.803
X170.799Y-92.003
X174.799Y-35.803
X174.799Y-55.803
X174.799Y-106.803
X174.799Y-123.803
X175.299Y-75.003
X175.799Y-89.803
X179.799Y-38.003
X179.799Y-58.003
X179.799Y-109.003
X179.799Y-126.003
X180.299Y-72.803
X183.799Y-89.803
X184.799Y-35.803
X184.799Y-55.803
X184.799Y-106.803
X184.799Y-123.803
X188.299Y-72.803
X188.799Y-92.003
X192.799Y-35.803
X192.799Y-55.803
X192.799Y-123.803
X193.299Y-75.003
X193.799Y-89.803
X197.799Y-38.003
X197.799Y-58.003
X197.799Y-126.003
X198.299Y-72.803
X201.799Y-106.803
X202.799Y-35.803
X202.799Y-55.803
X202.799Y-123.803
X206.299Y-89.803
X206.799Y-109.003
X208.549Y-72.803
X210.799Y-35.803
X210.799Y-55.803
X210.799Y-123.803
X211.299Y-92.003
X211.799Y-106.803
X213.549Y-75.003
X215.799Y-38.003
X215.799Y-58.003
X215.799Y-126.003
X216.299Y-89.803
X218.549Y-72.803
X220.799Y-35.803
X220.799Y-55.803
X220.799Y-123.803
T4
X48.799Y-32.103
X48.799Y-49.103
X48.799Y-69.103
X48.799Y-86.103
X48.799Y-103.103
X48.799Y-120.103
X66.799Y-32.103
X66.799Y-49.103
X66.799Y-69.103
X66.799Y-86.103
X66.799Y-103.103
X66.799Y-120.103
X84.799Y-49.103
X84.799Y-69.103
X84.799Y-86.103
X84.799Y-103.103
X84.799Y-120.103
X103.482Y-135.047
X107.799Y-103.103
X116.799Y-86.103
X119.982Y-125.52
X121.299Y-69.103
X125.799Y-32.103
X125.799Y-52.103
X125.799Y-103.103
X134.799Y-86.103
X139.299Y-69.103
X143.799Y-32.103
X143.799Y-52.103
X143.799Y-103.103
X143.799Y-120.103
X152.799Y-86.103
X157.299Y-69.103
X161.799Y-32.103
X161.799Y-52.103
X161.799Y-103.103
X161.799Y-120.103
X170.799Y-86.103
X175.299Y-69.103
X179.799Y-32.103
X179.799Y-52.103
X179.799Y-103.103
X179.799Y-120.103
X188.799Y-86.103
X193.299Y-69.103
X197.799Y-32.103
X197.799Y-52.103
X197.799Y-120.103
X206.799Y-103.103
X211.299Y-86.103
X213.549Y-69.103
X215.799Y-32.103
X215.799Y-52.103
X215.799Y-120.103
M30
